<svg xmlns="http://www.w3.org/2000/svg" viewBox="0 0 400 240" width="400" height="240" fill="currentColor">
<circle cx="4" cy="4" r="2.20"></circle>
<circle cx="12" cy="4" r="2.20"></circle>
<circle cx="20" cy="4" r="2.20"></circle>
<circle cx="28" cy="4" r="2.20"></circle>
<circle cx="36" cy="4" r="2.19"></circle>
<circle cx="44" cy="4" r="2.15"></circle>
<circle cx="52" cy="4" r="2.11"></circle>
<circle cx="60" cy="4" r="2.07"></circle>
<circle cx="76" cy="4" r="2.00"></circle>
<circle cx="84" cy="4" r="1.96"></circle>
<circle cx="92" cy="4" r="1.92"></circle>
<circle cx="108" cy="4" r="1.84"></circle>
<circle cx="124" cy="4" r="1.77"></circle>
<circle cx="140" cy="4" r="1.70"></circle>
<circle cx="156" cy="4" r="1.63"></circle>
<circle cx="172" cy="4" r="1.56"></circle>
<circle cx="188" cy="4" r="1.50"></circle>
<circle cx="204" cy="4" r="1.44"></circle>
<circle cx="220" cy="4" r="1.39"></circle>
<circle cx="252" cy="4" r="1.30"></circle>
<circle cx="284" cy="4" r="1.24"></circle>
<circle cx="316" cy="4" r="1.22"></circle>
<circle cx="348" cy="4" r="1.24"></circle>
<circle cx="380" cy="4" r="1.30"></circle>
<circle cx="4" cy="12" r="2.20"></circle>
<circle cx="12" cy="12" r="2.20"></circle>
<circle cx="20" cy="12" r="2.20"></circle>
<circle cx="28" cy="12" r="2.20"></circle>
<circle cx="36" cy="12" r="2.16"></circle>
<circle cx="44" cy="12" r="2.12"></circle>
<circle cx="52" cy="12" r="2.08"></circle>
<circle cx="60" cy="12" r="2.04"></circle>
<circle cx="68" cy="12" r="2.00"></circle>
<circle cx="76" cy="12" r="1.96"></circle>
<circle cx="84" cy="12" r="1.92"></circle>
<circle cx="92" cy="12" r="1.88"></circle>
<circle cx="100" cy="12" r="1.84"></circle>
<circle cx="108" cy="12" r="1.80"></circle>
<circle cx="116" cy="12" r="1.77"></circle>
<circle cx="124" cy="12" r="1.73"></circle>
<circle cx="132" cy="12" r="1.69"></circle>
<circle cx="148" cy="12" r="1.62"></circle>
<circle cx="156" cy="12" r="1.58"></circle>
<circle cx="164" cy="12" r="1.55"></circle>
<circle cx="180" cy="12" r="1.48"></circle>
<circle cx="196" cy="12" r="1.42"></circle>
<circle cx="212" cy="12" r="1.36"></circle>
<circle cx="228" cy="12" r="1.30"></circle>
<circle cx="244" cy="12" r="1.26"></circle>
<circle cx="260" cy="12" r="1.22"></circle>
<circle cx="276" cy="12" r="1.18"></circle>
<circle cx="292" cy="12" r="1.16"></circle>
<circle cx="308" cy="12" r="1.15"></circle>
<circle cx="324" cy="12" r="1.15"></circle>
<circle cx="340" cy="12" r="1.16"></circle>
<circle cx="356" cy="12" r="1.18"></circle>
<circle cx="372" cy="12" r="1.22"></circle>
<circle cx="388" cy="12" r="1.26"></circle>
<circle cx="4" cy="20" r="2.20"></circle>
<circle cx="12" cy="20" r="2.20"></circle>
<circle cx="20" cy="20" r="2.20"></circle>
<circle cx="28" cy="20" r="2.17"></circle>
<circle cx="36" cy="20" r="2.13"></circle>
<circle cx="44" cy="20" r="2.09"></circle>
<circle cx="60" cy="20" r="2.01"></circle>
<circle cx="68" cy="20" r="1.97"></circle>
<circle cx="76" cy="20" r="1.93"></circle>
<circle cx="92" cy="20" r="1.85"></circle>
<circle cx="108" cy="20" r="1.77"></circle>
<circle cx="124" cy="20" r="1.69"></circle>
<circle cx="140" cy="20" r="1.61"></circle>
<circle cx="156" cy="20" r="1.54"></circle>
<circle cx="172" cy="20" r="1.47"></circle>
<circle cx="188" cy="20" r="1.40"></circle>
<circle cx="204" cy="20" r="1.33"></circle>
<circle cx="220" cy="20" r="1.27"></circle>
<circle cx="236" cy="20" r="1.22"></circle>
<circle cx="268" cy="20" r="1.13"></circle>
<circle cx="300" cy="20" r="1.08"></circle>
<circle cx="332" cy="20" r="1.08"></circle>
<circle cx="364" cy="20" r="1.13"></circle>
<circle cx="396" cy="20" r="1.22"></circle>
<circle cx="4" cy="28" r="2.20"></circle>
<circle cx="12" cy="28" r="2.20"></circle>
<circle cx="20" cy="28" r="2.19"></circle>
<circle cx="28" cy="28" r="2.15"></circle>
<circle cx="36" cy="28" r="2.10"></circle>
<circle cx="44" cy="28" r="2.06"></circle>
<circle cx="52" cy="28" r="2.02"></circle>
<circle cx="60" cy="28" r="1.98"></circle>
<circle cx="68" cy="28" r="1.94"></circle>
<circle cx="76" cy="28" r="1.90"></circle>
<circle cx="84" cy="28" r="1.85"></circle>
<circle cx="92" cy="28" r="1.81"></circle>
<circle cx="100" cy="28" r="1.77"></circle>
<circle cx="108" cy="28" r="1.73"></circle>
<circle cx="116" cy="28" r="1.69"></circle>
<circle cx="124" cy="28" r="1.65"></circle>
<circle cx="132" cy="28" r="1.61"></circle>
<circle cx="140" cy="28" r="1.57"></circle>
<circle cx="148" cy="28" r="1.53"></circle>
<circle cx="164" cy="28" r="1.46"></circle>
<circle cx="180" cy="28" r="1.39"></circle>
<circle cx="196" cy="28" r="1.31"></circle>
<circle cx="212" cy="28" r="1.25"></circle>
<circle cx="228" cy="28" r="1.19"></circle>
<circle cx="244" cy="28" r="1.13"></circle>
<circle cx="260" cy="28" r="1.08"></circle>
<circle cx="276" cy="28" r="1.04"></circle>
<circle cx="292" cy="28" r="1.02"></circle>
<circle cx="308" cy="28" r="1.00"></circle>
<circle cx="324" cy="28" r="1.00"></circle>
<circle cx="340" cy="28" r="1.02"></circle>
<circle cx="356" cy="28" r="1.04"></circle>
<circle cx="372" cy="28" r="1.08"></circle>
<circle cx="388" cy="28" r="1.13"></circle>
<circle cx="4" cy="36" r="2.20"></circle>
<circle cx="12" cy="36" r="2.20"></circle>
<circle cx="20" cy="36" r="2.17"></circle>
<circle cx="28" cy="36" r="2.12"></circle>
<circle cx="44" cy="36" r="2.04"></circle>
<circle cx="52" cy="36" r="2.00"></circle>
<circle cx="60" cy="36" r="1.95"></circle>
<circle cx="76" cy="36" r="1.87"></circle>
<circle cx="92" cy="36" r="1.79"></circle>
<circle cx="108" cy="36" r="1.70"></circle>
<circle cx="124" cy="36" r="1.62"></circle>
<circle cx="140" cy="36" r="1.54"></circle>
<circle cx="156" cy="36" r="1.46"></circle>
<circle cx="172" cy="36" r="1.38"></circle>
<circle cx="188" cy="36" r="1.31"></circle>
<circle cx="220" cy="36" r="1.16"></circle>
<circle cx="4" cy="44" r="2.20"></circle>
<circle cx="12" cy="44" r="2.19"></circle>
<circle cx="20" cy="44" r="2.15"></circle>
<circle cx="28" cy="44" r="2.10"></circle>
<circle cx="36" cy="44" r="2.06"></circle>
<circle cx="44" cy="44" r="2.02"></circle>
<circle cx="52" cy="44" r="1.97"></circle>
<circle cx="60" cy="44" r="1.93"></circle>
<circle cx="68" cy="44" r="1.89"></circle>
<circle cx="76" cy="44" r="1.85"></circle>
<circle cx="84" cy="44" r="1.80"></circle>
<circle cx="92" cy="44" r="1.76"></circle>
<circle cx="100" cy="44" r="1.72"></circle>
<circle cx="116" cy="44" r="1.63"></circle>
<circle cx="124" cy="44" r="1.59"></circle>
<circle cx="132" cy="44" r="1.55"></circle>
<circle cx="148" cy="44" r="1.47"></circle>
<circle cx="164" cy="44" r="1.39"></circle>
<circle cx="180" cy="44" r="1.31"></circle>
<circle cx="196" cy="44" r="1.23"></circle>
<circle cx="212" cy="44" r="1.15"></circle>
<circle cx="228" cy="44" r="1.08"></circle>
<circle cx="244" cy="44" r="1.02"></circle>
<circle cx="260" cy="44" r="0.96"></circle>
<circle cx="276" cy="44" r="0.91"></circle>
<circle cx="308" cy="44" r="0.85"></circle>
<circle cx="340" cy="44" r="0.87"></circle>
<circle cx="372" cy="44" r="0.96"></circle>
<circle cx="388" cy="44" r="1.02"></circle>
<circle cx="4" cy="52" r="2.20"></circle>
<circle cx="12" cy="52" r="2.18"></circle>
<circle cx="20" cy="52" r="2.13"></circle>
<circle cx="28" cy="52" r="2.09"></circle>
<circle cx="36" cy="52" r="2.04"></circle>
<circle cx="44" cy="52" r="2.00"></circle>
<circle cx="60" cy="52" r="1.91"></circle>
<circle cx="68" cy="52" r="1.87"></circle>
<circle cx="76" cy="52" r="1.83"></circle>
<circle cx="92" cy="52" r="1.74"></circle>
<circle cx="108" cy="52" r="1.65"></circle>
<circle cx="124" cy="52" r="1.57"></circle>
<circle cx="140" cy="52" r="1.48"></circle>
<circle cx="156" cy="52" r="1.40"></circle>
<circle cx="172" cy="52" r="1.31"></circle>
<circle cx="204" cy="52" r="1.15"></circle>
<circle cx="4" cy="60" r="2.20"></circle>
<circle cx="12" cy="60" r="2.16"></circle>
<circle cx="20" cy="60" r="2.12"></circle>
<circle cx="28" cy="60" r="2.07"></circle>
<circle cx="36" cy="60" r="2.03"></circle>
<circle cx="44" cy="60" r="1.99"></circle>
<circle cx="52" cy="60" r="1.94"></circle>
<circle cx="60" cy="60" r="1.90"></circle>
<circle cx="68" cy="60" r="1.85"></circle>
<circle cx="76" cy="60" r="1.81"></circle>
<circle cx="84" cy="60" r="1.77"></circle>
<circle cx="92" cy="60" r="1.72"></circle>
<circle cx="100" cy="60" r="1.68"></circle>
<circle cx="108" cy="60" r="1.63"></circle>
<circle cx="116" cy="60" r="1.59"></circle>
<circle cx="132" cy="60" r="1.50"></circle>
<circle cx="140" cy="60" r="1.46"></circle>
<circle cx="148" cy="60" r="1.42"></circle>
<circle cx="164" cy="60" r="1.33"></circle>
<circle cx="180" cy="60" r="1.25"></circle>
<circle cx="196" cy="60" r="1.16"></circle>
<circle cx="212" cy="60" r="1.08"></circle>
<circle cx="228" cy="60" r="1.00"></circle>
<circle cx="244" cy="60" r="0.92"></circle>
<circle cx="260" cy="60" r="0.85"></circle>
<circle cx="292" cy="60" r="0.73"></circle>
<circle cx="324" cy="60" r="0.71"></circle>
<circle cx="356" cy="60" r="0.78"></circle>
<circle cx="388" cy="60" r="0.92"></circle>
<circle cx="4" cy="68" r="2.20"></circle>
<circle cx="12" cy="68" r="2.15"></circle>
<circle cx="20" cy="68" r="2.11"></circle>
<circle cx="28" cy="68" r="2.06"></circle>
<circle cx="44" cy="68" r="1.97"></circle>
<circle cx="60" cy="68" r="1.89"></circle>
<circle cx="76" cy="68" r="1.80"></circle>
<circle cx="92" cy="68" r="1.71"></circle>
<circle cx="108" cy="68" r="1.62"></circle>
<circle cx="124" cy="68" r="1.53"></circle>
<circle cx="140" cy="68" r="1.44"></circle>
<circle cx="156" cy="68" r="1.36"></circle>
<circle cx="188" cy="68" r="1.18"></circle>
<circle cx="4" cy="76" r="2.19"></circle>
<circle cx="12" cy="76" r="2.15"></circle>
<circle cx="20" cy="76" r="2.10"></circle>
<circle cx="28" cy="76" r="2.06"></circle>
<circle cx="36" cy="76" r="2.01"></circle>
<circle cx="44" cy="76" r="1.97"></circle>
<circle cx="52" cy="76" r="1.92"></circle>
<circle cx="60" cy="76" r="1.88"></circle>
<circle cx="68" cy="76" r="1.83"></circle>
<circle cx="76" cy="76" r="1.79"></circle>
<circle cx="84" cy="76" r="1.74"></circle>
<circle cx="92" cy="76" r="1.70"></circle>
<circle cx="100" cy="76" r="1.65"></circle>
<circle cx="116" cy="76" r="1.57"></circle>
<circle cx="132" cy="76" r="1.48"></circle>
<circle cx="148" cy="76" r="1.39"></circle>
<circle cx="164" cy="76" r="1.30"></circle>
<circle cx="180" cy="76" r="1.21"></circle>
<circle cx="196" cy="76" r="1.12"></circle>
<circle cx="212" cy="76" r="1.03"></circle>
<circle cx="244" cy="76" r="0.86"></circle>
<circle cx="372" cy="76" r="0.77"></circle>
<circle cx="4" cy="84" r="2.19"></circle>
<circle cx="12" cy="84" r="2.14"></circle>
<circle cx="20" cy="84" r="2.10"></circle>
<circle cx="28" cy="84" r="2.05"></circle>
<circle cx="36" cy="84" r="2.01"></circle>
<circle cx="44" cy="84" r="1.96"></circle>
<circle cx="60" cy="84" r="1.87"></circle>
<circle cx="76" cy="84" r="1.78"></circle>
<circle cx="92" cy="84" r="1.69"></circle>
<circle cx="108" cy="84" r="1.61"></circle>
<circle cx="124" cy="84" r="1.52"></circle>
<circle cx="140" cy="84" r="1.43"></circle>
<circle cx="156" cy="84" r="1.34"></circle>
<circle cx="172" cy="84" r="1.25"></circle>
<circle cx="204" cy="84" r="1.07"></circle>
<circle cx="4" cy="92" r="2.19"></circle>
<circle cx="12" cy="92" r="2.14"></circle>
<circle cx="20" cy="92" r="2.10"></circle>
<circle cx="28" cy="92" r="2.05"></circle>
<circle cx="36" cy="92" r="2.01"></circle>
<circle cx="44" cy="92" r="1.96"></circle>
<circle cx="52" cy="92" r="1.92"></circle>
<circle cx="60" cy="92" r="1.87"></circle>
<circle cx="68" cy="92" r="1.83"></circle>
<circle cx="76" cy="92" r="1.78"></circle>
<circle cx="84" cy="92" r="1.74"></circle>
<circle cx="92" cy="92" r="1.69"></circle>
<circle cx="100" cy="92" r="1.65"></circle>
<circle cx="108" cy="92" r="1.61"></circle>
<circle cx="116" cy="92" r="1.56"></circle>
<circle cx="132" cy="92" r="1.47"></circle>
<circle cx="148" cy="92" r="1.38"></circle>
<circle cx="164" cy="92" r="1.29"></circle>
<circle cx="180" cy="92" r="1.20"></circle>
<circle cx="196" cy="92" r="1.11"></circle>
<circle cx="212" cy="92" r="1.02"></circle>
<circle cx="228" cy="92" r="0.93"></circle>
<circle cx="260" cy="92" r="0.76"></circle>
<circle cx="356" cy="92" r="0.67"></circle>
<circle cx="388" cy="92" r="0.84"></circle>
<circle cx="4" cy="100" r="2.19"></circle>
<circle cx="12" cy="100" r="2.15"></circle>
<circle cx="20" cy="100" r="2.10"></circle>
<circle cx="28" cy="100" r="2.06"></circle>
<circle cx="44" cy="100" r="1.97"></circle>
<circle cx="60" cy="100" r="1.88"></circle>
<circle cx="76" cy="100" r="1.79"></circle>
<circle cx="92" cy="100" r="1.70"></circle>
<circle cx="108" cy="100" r="1.61"></circle>
<circle cx="124" cy="100" r="1.52"></circle>
<circle cx="140" cy="100" r="1.43"></circle>
<circle cx="156" cy="100" r="1.34"></circle>
<circle cx="188" cy="100" r="1.17"></circle>
<circle cx="4" cy="108" r="2.20"></circle>
<circle cx="12" cy="108" r="2.15"></circle>
<circle cx="20" cy="108" r="2.11"></circle>
<circle cx="28" cy="108" r="2.06"></circle>
<circle cx="36" cy="108" r="2.02"></circle>
<circle cx="44" cy="108" r="1.97"></circle>
<circle cx="52" cy="108" r="1.93"></circle>
<circle cx="60" cy="108" r="1.89"></circle>
<circle cx="68" cy="108" r="1.84"></circle>
<circle cx="76" cy="108" r="1.80"></circle>
<circle cx="84" cy="108" r="1.75"></circle>
<circle cx="92" cy="108" r="1.71"></circle>
<circle cx="100" cy="108" r="1.66"></circle>
<circle cx="116" cy="108" r="1.58"></circle>
<circle cx="132" cy="108" r="1.49"></circle>
<circle cx="148" cy="108" r="1.40"></circle>
<circle cx="164" cy="108" r="1.31"></circle>
<circle cx="180" cy="108" r="1.22"></circle>
<circle cx="196" cy="108" r="1.14"></circle>
<circle cx="212" cy="108" r="1.05"></circle>
<circle cx="228" cy="108" r="0.97"></circle>
<circle cx="244" cy="108" r="0.88"></circle>
<circle cx="372" cy="108" r="0.80"></circle>
<circle cx="4" cy="116" r="2.20"></circle>
<circle cx="12" cy="116" r="2.16"></circle>
<circle cx="20" cy="116" r="2.12"></circle>
<circle cx="28" cy="116" r="2.07"></circle>
<circle cx="36" cy="116" r="2.03"></circle>
<circle cx="44" cy="116" r="1.99"></circle>
<circle cx="60" cy="116" r="1.90"></circle>
<circle cx="68" cy="116" r="1.85"></circle>
<circle cx="76" cy="116" r="1.81"></circle>
<circle cx="92" cy="116" r="1.72"></circle>
<circle cx="108" cy="116" r="1.63"></circle>
<circle cx="124" cy="116" r="1.55"></circle>
<circle cx="140" cy="116" r="1.46"></circle>
<circle cx="156" cy="116" r="1.37"></circle>
<circle cx="172" cy="116" r="1.29"></circle>
<circle cx="204" cy="116" r="1.12"></circle>
<circle cx="4" cy="124" r="2.20"></circle>
<circle cx="12" cy="124" r="2.18"></circle>
<circle cx="20" cy="124" r="2.13"></circle>
<circle cx="28" cy="124" r="2.09"></circle>
<circle cx="36" cy="124" r="2.04"></circle>
<circle cx="44" cy="124" r="2.00"></circle>
<circle cx="52" cy="124" r="1.96"></circle>
<circle cx="60" cy="124" r="1.91"></circle>
<circle cx="68" cy="124" r="1.87"></circle>
<circle cx="76" cy="124" r="1.83"></circle>
<circle cx="84" cy="124" r="1.78"></circle>
<circle cx="92" cy="124" r="1.74"></circle>
<circle cx="100" cy="124" r="1.70"></circle>
<circle cx="108" cy="124" r="1.65"></circle>
<circle cx="116" cy="124" r="1.61"></circle>
<circle cx="132" cy="124" r="1.52"></circle>
<circle cx="140" cy="124" r="1.48"></circle>
<circle cx="148" cy="124" r="1.44"></circle>
<circle cx="164" cy="124" r="1.36"></circle>
<circle cx="180" cy="124" r="1.27"></circle>
<circle cx="196" cy="124" r="1.19"></circle>
<circle cx="212" cy="124" r="1.11"></circle>
<circle cx="228" cy="124" r="1.04"></circle>
<circle cx="244" cy="124" r="0.96"></circle>
<circle cx="260" cy="124" r="0.90"></circle>
<circle cx="292" cy="124" r="0.80"></circle>
<circle cx="324" cy="124" r="0.78"></circle>
<circle cx="356" cy="124" r="0.84"></circle>
<circle cx="372" cy="124" r="0.90"></circle>
<circle cx="388" cy="124" r="0.96"></circle>
<circle cx="4" cy="132" r="2.20"></circle>
<circle cx="12" cy="132" r="2.19"></circle>
<circle cx="20" cy="132" r="2.15"></circle>
<circle cx="28" cy="132" r="2.10"></circle>
<circle cx="44" cy="132" r="2.02"></circle>
<circle cx="52" cy="132" r="1.97"></circle>
<circle cx="60" cy="132" r="1.93"></circle>
<circle cx="76" cy="132" r="1.85"></circle>
<circle cx="92" cy="132" r="1.76"></circle>
<circle cx="108" cy="132" r="1.68"></circle>
<circle cx="124" cy="132" r="1.59"></circle>
<circle cx="140" cy="132" r="1.51"></circle>
<circle cx="156" cy="132" r="1.43"></circle>
<circle cx="188" cy="132" r="1.27"></circle>
<circle cx="4" cy="140" r="2.20"></circle>
<circle cx="12" cy="140" r="2.20"></circle>
<circle cx="20" cy="140" r="2.17"></circle>
<circle cx="28" cy="140" r="2.12"></circle>
<circle cx="36" cy="140" r="2.08"></circle>
<circle cx="44" cy="140" r="2.04"></circle>
<circle cx="52" cy="140" r="2.00"></circle>
<circle cx="60" cy="140" r="1.95"></circle>
<circle cx="68" cy="140" r="1.91"></circle>
<circle cx="76" cy="140" r="1.87"></circle>
<circle cx="84" cy="140" r="1.83"></circle>
<circle cx="92" cy="140" r="1.79"></circle>
<circle cx="100" cy="140" r="1.74"></circle>
<circle cx="116" cy="140" r="1.66"></circle>
<circle cx="124" cy="140" r="1.62"></circle>
<circle cx="132" cy="140" r="1.58"></circle>
<circle cx="148" cy="140" r="1.50"></circle>
<circle cx="164" cy="140" r="1.42"></circle>
<circle cx="180" cy="140" r="1.34"></circle>
<circle cx="196" cy="140" r="1.27"></circle>
<circle cx="212" cy="140" r="1.20"></circle>
<circle cx="228" cy="140" r="1.13"></circle>
<circle cx="244" cy="140" r="1.07"></circle>
<circle cx="260" cy="140" r="1.02"></circle>
<circle cx="276" cy="140" r="0.97"></circle>
<circle cx="308" cy="140" r="0.93"></circle>
<circle cx="340" cy="140" r="0.94"></circle>
<circle cx="356" cy="140" r="0.97"></circle>
<circle cx="372" cy="140" r="1.02"></circle>
<circle cx="388" cy="140" r="1.07"></circle>
<circle cx="4" cy="148" r="2.20"></circle>
<circle cx="12" cy="148" r="2.20"></circle>
<circle cx="20" cy="148" r="2.19"></circle>
<circle cx="28" cy="148" r="2.15"></circle>
<circle cx="36" cy="148" r="2.10"></circle>
<circle cx="44" cy="148" r="2.06"></circle>
<circle cx="60" cy="148" r="1.98"></circle>
<circle cx="68" cy="148" r="1.94"></circle>
<circle cx="76" cy="148" r="1.90"></circle>
<circle cx="92" cy="148" r="1.81"></circle>
<circle cx="108" cy="148" r="1.73"></circle>
<circle cx="124" cy="148" r="1.65"></circle>
<circle cx="140" cy="148" r="1.57"></circle>
<circle cx="156" cy="148" r="1.50"></circle>
<circle cx="172" cy="148" r="1.42"></circle>
<circle cx="188" cy="148" r="1.35"></circle>
<circle cx="204" cy="148" r="1.28"></circle>
<circle cx="236" cy="148" r="1.16"></circle>
<circle cx="268" cy="148" r="1.06"></circle>
<circle cx="364" cy="148" r="1.06"></circle>
<circle cx="396" cy="148" r="1.16"></circle>
<circle cx="4" cy="156" r="2.20"></circle>
<circle cx="12" cy="156" r="2.20"></circle>
<circle cx="20" cy="156" r="2.20"></circle>
<circle cx="28" cy="156" r="2.17"></circle>
<circle cx="36" cy="156" r="2.13"></circle>
<circle cx="44" cy="156" r="2.09"></circle>
<circle cx="52" cy="156" r="2.05"></circle>
<circle cx="60" cy="156" r="2.01"></circle>
<circle cx="68" cy="156" r="1.97"></circle>
<circle cx="76" cy="156" r="1.93"></circle>
<circle cx="84" cy="156" r="1.89"></circle>
<circle cx="92" cy="156" r="1.85"></circle>
<circle cx="100" cy="156" r="1.81"></circle>
<circle cx="108" cy="156" r="1.77"></circle>
<circle cx="116" cy="156" r="1.73"></circle>
<circle cx="124" cy="156" r="1.69"></circle>
<circle cx="132" cy="156" r="1.65"></circle>
<circle cx="140" cy="156" r="1.61"></circle>
<circle cx="148" cy="156" r="1.57"></circle>
<circle cx="164" cy="156" r="1.50"></circle>
<circle cx="172" cy="156" r="1.47"></circle>
<circle cx="180" cy="156" r="1.43"></circle>
<circle cx="196" cy="156" r="1.36"></circle>
<circle cx="212" cy="156" r="1.30"></circle>
<circle cx="228" cy="156" r="1.24"></circle>
<circle cx="244" cy="156" r="1.19"></circle>
<circle cx="260" cy="156" r="1.15"></circle>
<circle cx="276" cy="156" r="1.11"></circle>
<circle cx="292" cy="156" r="1.09"></circle>
<circle cx="308" cy="156" r="1.08"></circle>
<circle cx="324" cy="156" r="1.08"></circle>
<circle cx="340" cy="156" r="1.09"></circle>
<circle cx="356" cy="156" r="1.11"></circle>
<circle cx="372" cy="156" r="1.15"></circle>
<circle cx="388" cy="156" r="1.19"></circle>
<circle cx="4" cy="164" r="2.20"></circle>
<circle cx="12" cy="164" r="2.20"></circle>
<circle cx="20" cy="164" r="2.20"></circle>
<circle cx="28" cy="164" r="2.20"></circle>
<circle cx="36" cy="164" r="2.16"></circle>
<circle cx="44" cy="164" r="2.12"></circle>
<circle cx="52" cy="164" r="2.08"></circle>
<circle cx="60" cy="164" r="2.04"></circle>
<circle cx="76" cy="164" r="1.96"></circle>
<circle cx="92" cy="164" r="1.88"></circle>
<circle cx="108" cy="164" r="1.80"></circle>
<circle cx="124" cy="164" r="1.73"></circle>
<circle cx="140" cy="164" r="1.65"></circle>
<circle cx="156" cy="164" r="1.58"></circle>
<circle cx="172" cy="164" r="1.51"></circle>
<circle cx="188" cy="164" r="1.45"></circle>
<circle cx="204" cy="164" r="1.39"></circle>
<circle cx="220" cy="164" r="1.33"></circle>
<circle cx="252" cy="164" r="1.23"></circle>
<circle cx="284" cy="164" r="1.17"></circle>
<circle cx="348" cy="164" r="1.17"></circle>
<circle cx="380" cy="164" r="1.23"></circle>
<circle cx="4" cy="172" r="2.20"></circle>
<circle cx="12" cy="172" r="2.20"></circle>
<circle cx="20" cy="172" r="2.20"></circle>
<circle cx="28" cy="172" r="2.20"></circle>
<circle cx="36" cy="172" r="2.19"></circle>
<circle cx="44" cy="172" r="2.15"></circle>
<circle cx="52" cy="172" r="2.11"></circle>
<circle cx="60" cy="172" r="2.07"></circle>
<circle cx="68" cy="172" r="2.03"></circle>
<circle cx="76" cy="172" r="2.00"></circle>
<circle cx="84" cy="172" r="1.96"></circle>
<circle cx="92" cy="172" r="1.92"></circle>
<circle cx="100" cy="172" r="1.88"></circle>
<circle cx="108" cy="172" r="1.84"></circle>
<circle cx="116" cy="172" r="1.81"></circle>
<circle cx="124" cy="172" r="1.77"></circle>
<circle cx="132" cy="172" r="1.73"></circle>
<circle cx="148" cy="172" r="1.66"></circle>
<circle cx="156" cy="172" r="1.63"></circle>
<circle cx="164" cy="172" r="1.60"></circle>
<circle cx="180" cy="172" r="1.53"></circle>
<circle cx="196" cy="172" r="1.47"></circle>
<circle cx="212" cy="172" r="1.42"></circle>
<circle cx="228" cy="172" r="1.37"></circle>
<circle cx="244" cy="172" r="1.32"></circle>
<circle cx="260" cy="172" r="1.28"></circle>
<circle cx="276" cy="172" r="1.26"></circle>
<circle cx="292" cy="172" r="1.24"></circle>
<circle cx="308" cy="172" r="1.23"></circle>
<circle cx="324" cy="172" r="1.23"></circle>
<circle cx="340" cy="172" r="1.24"></circle>
<circle cx="356" cy="172" r="1.26"></circle>
<circle cx="372" cy="172" r="1.28"></circle>
<circle cx="388" cy="172" r="1.32"></circle>
<circle cx="4" cy="180" r="2.20"></circle>
<circle cx="12" cy="180" r="2.20"></circle>
<circle cx="20" cy="180" r="2.20"></circle>
<circle cx="28" cy="180" r="2.20"></circle>
<circle cx="36" cy="180" r="2.20"></circle>
<circle cx="44" cy="180" r="2.19"></circle>
<circle cx="52" cy="180" r="2.15"></circle>
<circle cx="60" cy="180" r="2.11"></circle>
<circle cx="68" cy="180" r="2.07"></circle>
<circle cx="76" cy="180" r="2.03"></circle>
<circle cx="92" cy="180" r="1.96"></circle>
<circle cx="100" cy="180" r="1.92"></circle>
<circle cx="108" cy="180" r="1.89"></circle>
<circle cx="124" cy="180" r="1.82"></circle>
<circle cx="140" cy="180" r="1.75"></circle>
<circle cx="156" cy="180" r="1.68"></circle>
<circle cx="172" cy="180" r="1.62"></circle>
<circle cx="188" cy="180" r="1.56"></circle>
<circle cx="204" cy="180" r="1.50"></circle>
<circle cx="220" cy="180" r="1.45"></circle>
<circle cx="236" cy="180" r="1.41"></circle>
<circle cx="252" cy="180" r="1.37"></circle>
<circle cx="268" cy="180" r="1.34"></circle>
<circle cx="284" cy="180" r="1.32"></circle>
<circle cx="300" cy="180" r="1.30"></circle>
<circle cx="316" cy="180" r="1.30"></circle>
<circle cx="332" cy="180" r="1.30"></circle>
<circle cx="348" cy="180" r="1.32"></circle>
<circle cx="364" cy="180" r="1.34"></circle>
<circle cx="380" cy="180" r="1.37"></circle>
<circle cx="396" cy="180" r="1.41"></circle>
<circle cx="4" cy="188" r="2.20"></circle>
<circle cx="12" cy="188" r="2.20"></circle>
<circle cx="20" cy="188" r="2.20"></circle>
<circle cx="28" cy="188" r="2.20"></circle>
<circle cx="36" cy="188" r="2.20"></circle>
<circle cx="44" cy="188" r="2.20"></circle>
<circle cx="52" cy="188" r="2.19"></circle>
<circle cx="60" cy="188" r="2.15"></circle>
<circle cx="68" cy="188" r="2.11"></circle>
<circle cx="76" cy="188" r="2.08"></circle>
<circle cx="84" cy="188" r="2.04"></circle>
<circle cx="92" cy="188" r="2.00"></circle>
<circle cx="100" cy="188" r="1.97"></circle>
<circle cx="108" cy="188" r="1.93"></circle>
<circle cx="116" cy="188" r="1.90"></circle>
<circle cx="124" cy="188" r="1.86"></circle>
<circle cx="132" cy="188" r="1.83"></circle>
<circle cx="140" cy="188" r="1.80"></circle>
<circle cx="148" cy="188" r="1.77"></circle>
<circle cx="156" cy="188" r="1.73"></circle>
<circle cx="164" cy="188" r="1.70"></circle>
<circle cx="172" cy="188" r="1.67"></circle>
<circle cx="180" cy="188" r="1.64"></circle>
<circle cx="196" cy="188" r="1.59"></circle>
<circle cx="204" cy="188" r="1.56"></circle>
<circle cx="212" cy="188" r="1.54"></circle>
<circle cx="228" cy="188" r="1.50"></circle>
<circle cx="236" cy="188" r="1.48"></circle>
<circle cx="244" cy="188" r="1.46"></circle>
<circle cx="260" cy="188" r="1.42"></circle>
<circle cx="276" cy="188" r="1.40"></circle>
<circle cx="292" cy="188" r="1.38"></circle>
<circle cx="308" cy="188" r="1.37"></circle>
<circle cx="324" cy="188" r="1.37"></circle>
<circle cx="340" cy="188" r="1.38"></circle>
<circle cx="356" cy="188" r="1.40"></circle>
<circle cx="372" cy="188" r="1.42"></circle>
<circle cx="388" cy="188" r="1.46"></circle>
<circle cx="396" cy="188" r="1.48"></circle>
<circle cx="4" cy="196" r="2.20"></circle>
<circle cx="12" cy="196" r="2.20"></circle>
<circle cx="20" cy="196" r="2.20"></circle>
<circle cx="28" cy="196" r="2.20"></circle>
<circle cx="36" cy="196" r="2.20"></circle>
<circle cx="44" cy="196" r="2.20"></circle>
<circle cx="52" cy="196" r="2.20"></circle>
<circle cx="60" cy="196" r="2.19"></circle>
<circle cx="68" cy="196" r="2.16"></circle>
<circle cx="76" cy="196" r="2.12"></circle>
<circle cx="84" cy="196" r="2.08"></circle>
<circle cx="92" cy="196" r="2.05"></circle>
<circle cx="108" cy="196" r="1.98"></circle>
<circle cx="124" cy="196" r="1.91"></circle>
<circle cx="140" cy="196" r="1.85"></circle>
<circle cx="156" cy="196" r="1.79"></circle>
<circle cx="172" cy="196" r="1.73"></circle>
<circle cx="188" cy="196" r="1.68"></circle>
<circle cx="204" cy="196" r="1.63"></circle>
<circle cx="220" cy="196" r="1.58"></circle>
<circle cx="236" cy="196" r="1.54"></circle>
<circle cx="252" cy="196" r="1.51"></circle>
<circle cx="268" cy="196" r="1.48"></circle>
<circle cx="284" cy="196" r="1.46"></circle>
<circle cx="300" cy="196" r="1.45"></circle>
<circle cx="316" cy="196" r="1.45"></circle>
<circle cx="332" cy="196" r="1.45"></circle>
<circle cx="348" cy="196" r="1.46"></circle>
<circle cx="364" cy="196" r="1.48"></circle>
<circle cx="380" cy="196" r="1.51"></circle>
<circle cx="396" cy="196" r="1.54"></circle>
<circle cx="4" cy="204" r="2.20"></circle>
<circle cx="12" cy="204" r="2.20"></circle>
<circle cx="20" cy="204" r="2.20"></circle>
<circle cx="28" cy="204" r="2.20"></circle>
<circle cx="36" cy="204" r="2.20"></circle>
<circle cx="44" cy="204" r="2.20"></circle>
<circle cx="52" cy="204" r="2.20"></circle>
<circle cx="60" cy="204" r="2.20"></circle>
<circle cx="68" cy="204" r="2.20"></circle>
<circle cx="76" cy="204" r="2.17"></circle>
<circle cx="84" cy="204" r="2.13"></circle>
<circle cx="92" cy="204" r="2.10"></circle>
<circle cx="100" cy="204" r="2.06"></circle>
<circle cx="108" cy="204" r="2.03"></circle>
<circle cx="116" cy="204" r="2.00"></circle>
<circle cx="124" cy="204" r="1.97"></circle>
<circle cx="132" cy="204" r="1.93"></circle>
<circle cx="140" cy="204" r="1.90"></circle>
<circle cx="148" cy="204" r="1.87"></circle>
<circle cx="156" cy="204" r="1.85"></circle>
<circle cx="164" cy="204" r="1.82"></circle>
<circle cx="172" cy="204" r="1.79"></circle>
<circle cx="180" cy="204" r="1.76"></circle>
<circle cx="188" cy="204" r="1.74"></circle>
<circle cx="196" cy="204" r="1.71"></circle>
<circle cx="212" cy="204" r="1.67"></circle>
<circle cx="220" cy="204" r="1.65"></circle>
<circle cx="228" cy="204" r="1.63"></circle>
<circle cx="244" cy="204" r="1.60"></circle>
<circle cx="252" cy="204" r="1.58"></circle>
<circle cx="260" cy="204" r="1.57"></circle>
<circle cx="276" cy="204" r="1.55"></circle>
<circle cx="292" cy="204" r="1.53"></circle>
<circle cx="308" cy="204" r="1.52"></circle>
<circle cx="324" cy="204" r="1.52"></circle>
<circle cx="340" cy="204" r="1.53"></circle>
<circle cx="356" cy="204" r="1.55"></circle>
<circle cx="372" cy="204" r="1.57"></circle>
<circle cx="380" cy="204" r="1.58"></circle>
<circle cx="388" cy="204" r="1.60"></circle>
<circle cx="4" cy="212" r="2.20"></circle>
<circle cx="12" cy="212" r="2.20"></circle>
<circle cx="20" cy="212" r="2.20"></circle>
<circle cx="28" cy="212" r="2.20"></circle>
<circle cx="36" cy="212" r="2.20"></circle>
<circle cx="44" cy="212" r="2.20"></circle>
<circle cx="52" cy="212" r="2.20"></circle>
<circle cx="60" cy="212" r="2.20"></circle>
<circle cx="68" cy="212" r="2.20"></circle>
<circle cx="76" cy="212" r="2.20"></circle>
<circle cx="84" cy="212" r="2.18"></circle>
<circle cx="92" cy="212" r="2.15"></circle>
<circle cx="100" cy="212" r="2.11"></circle>
<circle cx="108" cy="212" r="2.08"></circle>
<circle cx="116" cy="212" r="2.05"></circle>
<circle cx="124" cy="212" r="2.02"></circle>
<circle cx="132" cy="212" r="1.99"></circle>
<circle cx="140" cy="212" r="1.96"></circle>
<circle cx="156" cy="212" r="1.90"></circle>
<circle cx="164" cy="212" r="1.88"></circle>
<circle cx="172" cy="212" r="1.85"></circle>
<circle cx="188" cy="212" r="1.80"></circle>
<circle cx="204" cy="212" r="1.76"></circle>
<circle cx="220" cy="212" r="1.72"></circle>
<circle cx="236" cy="212" r="1.68"></circle>
<circle cx="252" cy="212" r="1.65"></circle>
<circle cx="268" cy="212" r="1.63"></circle>
<circle cx="284" cy="212" r="1.61"></circle>
<circle cx="300" cy="212" r="1.60"></circle>
<circle cx="316" cy="212" r="1.60"></circle>
<circle cx="332" cy="212" r="1.60"></circle>
<circle cx="348" cy="212" r="1.61"></circle>
<circle cx="364" cy="212" r="1.63"></circle>
<circle cx="380" cy="212" r="1.65"></circle>
<circle cx="396" cy="212" r="1.68"></circle>
<circle cx="4" cy="220" r="2.20"></circle>
<circle cx="12" cy="220" r="2.20"></circle>
<circle cx="20" cy="220" r="2.20"></circle>
<circle cx="28" cy="220" r="2.20"></circle>
<circle cx="36" cy="220" r="2.20"></circle>
<circle cx="44" cy="220" r="2.20"></circle>
<circle cx="52" cy="220" r="2.20"></circle>
<circle cx="60" cy="220" r="2.20"></circle>
<circle cx="68" cy="220" r="2.20"></circle>
<circle cx="76" cy="220" r="2.20"></circle>
<circle cx="84" cy="220" r="2.20"></circle>
<circle cx="92" cy="220" r="2.20"></circle>
<circle cx="100" cy="220" r="2.17"></circle>
<circle cx="108" cy="220" r="2.14"></circle>
<circle cx="116" cy="220" r="2.10"></circle>
<circle cx="124" cy="220" r="2.08"></circle>
<circle cx="132" cy="220" r="2.05"></circle>
<circle cx="140" cy="220" r="2.02"></circle>
<circle cx="148" cy="220" r="1.99"></circle>
<circle cx="156" cy="220" r="1.96"></circle>
<circle cx="164" cy="220" r="1.94"></circle>
<circle cx="172" cy="220" r="1.91"></circle>
<circle cx="180" cy="220" r="1.89"></circle>
<circle cx="188" cy="220" r="1.87"></circle>
<circle cx="196" cy="220" r="1.84"></circle>
<circle cx="204" cy="220" r="1.82"></circle>
<circle cx="212" cy="220" r="1.80"></circle>
<circle cx="220" cy="220" r="1.78"></circle>
<circle cx="228" cy="220" r="1.77"></circle>
<circle cx="236" cy="220" r="1.75"></circle>
<circle cx="244" cy="220" r="1.74"></circle>
<circle cx="252" cy="220" r="1.72"></circle>
<circle cx="260" cy="220" r="1.71"></circle>
<circle cx="268" cy="220" r="1.70"></circle>
<circle cx="276" cy="220" r="1.69"></circle>
<circle cx="284" cy="220" r="1.68"></circle>
<circle cx="292" cy="220" r="1.68"></circle>
<circle cx="300" cy="220" r="1.68"></circle>
<circle cx="308" cy="220" r="1.67"></circle>
<circle cx="316" cy="220" r="1.67"></circle>
<circle cx="324" cy="220" r="1.67"></circle>
<circle cx="332" cy="220" r="1.68"></circle>
<circle cx="340" cy="220" r="1.68"></circle>
<circle cx="348" cy="220" r="1.68"></circle>
<circle cx="356" cy="220" r="1.69"></circle>
<circle cx="364" cy="220" r="1.70"></circle>
<circle cx="372" cy="220" r="1.71"></circle>
<circle cx="380" cy="220" r="1.72"></circle>
<circle cx="388" cy="220" r="1.74"></circle>
<circle cx="396" cy="220" r="1.75"></circle>
<circle cx="4" cy="228" r="2.20"></circle>
<circle cx="12" cy="228" r="2.20"></circle>
<circle cx="20" cy="228" r="2.20"></circle>
<circle cx="28" cy="228" r="2.20"></circle>
<circle cx="36" cy="228" r="2.20"></circle>
<circle cx="44" cy="228" r="2.20"></circle>
<circle cx="52" cy="228" r="2.20"></circle>
<circle cx="60" cy="228" r="2.20"></circle>
<circle cx="68" cy="228" r="2.20"></circle>
<circle cx="76" cy="228" r="2.20"></circle>
<circle cx="84" cy="228" r="2.20"></circle>
<circle cx="92" cy="228" r="2.20"></circle>
<circle cx="100" cy="228" r="2.20"></circle>
<circle cx="108" cy="228" r="2.19"></circle>
<circle cx="116" cy="228" r="2.16"></circle>
<circle cx="124" cy="228" r="2.13"></circle>
<circle cx="140" cy="228" r="2.08"></circle>
<circle cx="148" cy="228" r="2.05"></circle>
<circle cx="156" cy="228" r="2.02"></circle>
<circle cx="172" cy="228" r="1.98"></circle>
<circle cx="180" cy="228" r="1.95"></circle>
<circle cx="188" cy="228" r="1.93"></circle>
<circle cx="204" cy="228" r="1.89"></circle>
<circle cx="220" cy="228" r="1.85"></circle>
<circle cx="236" cy="228" r="1.82"></circle>
<circle cx="252" cy="228" r="1.79"></circle>
<circle cx="268" cy="228" r="1.77"></circle>
<circle cx="284" cy="228" r="1.76"></circle>
<circle cx="300" cy="228" r="1.75"></circle>
<circle cx="316" cy="228" r="1.75"></circle>
<circle cx="332" cy="228" r="1.75"></circle>
<circle cx="348" cy="228" r="1.76"></circle>
<circle cx="364" cy="228" r="1.77"></circle>
<circle cx="380" cy="228" r="1.79"></circle>
<circle cx="396" cy="228" r="1.82"></circle>
<circle cx="4" cy="236" r="2.20"></circle>
<circle cx="12" cy="236" r="2.20"></circle>
<circle cx="20" cy="236" r="2.20"></circle>
<circle cx="28" cy="236" r="2.20"></circle>
<circle cx="36" cy="236" r="2.20"></circle>
<circle cx="44" cy="236" r="2.20"></circle>
<circle cx="52" cy="236" r="2.20"></circle>
<circle cx="60" cy="236" r="2.20"></circle>
<circle cx="68" cy="236" r="2.20"></circle>
<circle cx="76" cy="236" r="2.20"></circle>
<circle cx="84" cy="236" r="2.20"></circle>
<circle cx="92" cy="236" r="2.20"></circle>
<circle cx="100" cy="236" r="2.20"></circle>
<circle cx="108" cy="236" r="2.20"></circle>
<circle cx="116" cy="236" r="2.20"></circle>
<circle cx="124" cy="236" r="2.19"></circle>
<circle cx="132" cy="236" r="2.16"></circle>
<circle cx="140" cy="236" r="2.14"></circle>
<circle cx="148" cy="236" r="2.11"></circle>
<circle cx="156" cy="236" r="2.09"></circle>
<circle cx="164" cy="236" r="2.06"></circle>
<circle cx="172" cy="236" r="2.04"></circle>
<circle cx="180" cy="236" r="2.02"></circle>
<circle cx="188" cy="236" r="2.00"></circle>
<circle cx="196" cy="236" r="1.98"></circle>
<circle cx="204" cy="236" r="1.96"></circle>
<circle cx="212" cy="236" r="1.94"></circle>
<circle cx="220" cy="236" r="1.92"></circle>
<circle cx="228" cy="236" r="1.91"></circle>
<circle cx="236" cy="236" r="1.89"></circle>
<circle cx="244" cy="236" r="1.88"></circle>
<circle cx="252" cy="236" r="1.87"></circle>
<circle cx="260" cy="236" r="1.86"></circle>
<circle cx="268" cy="236" r="1.85"></circle>
<circle cx="276" cy="236" r="1.84"></circle>
<circle cx="284" cy="236" r="1.83"></circle>
<circle cx="292" cy="236" r="1.83"></circle>
<circle cx="300" cy="236" r="1.82"></circle>
<circle cx="308" cy="236" r="1.82"></circle>
<circle cx="316" cy="236" r="1.82"></circle>
<circle cx="324" cy="236" r="1.82"></circle>
<circle cx="332" cy="236" r="1.82"></circle>
<circle cx="340" cy="236" r="1.83"></circle>
<circle cx="348" cy="236" r="1.83"></circle>
<circle cx="356" cy="236" r="1.84"></circle>
<circle cx="364" cy="236" r="1.85"></circle>
<circle cx="372" cy="236" r="1.86"></circle>
<circle cx="380" cy="236" r="1.87"></circle>
<circle cx="388" cy="236" r="1.88"></circle>
<circle cx="396" cy="236" r="1.89"></circle>
</svg>